<svg xmlns="http://www.w3.org/2000/svg" xmlns:xlink="http://www.w3.org/1999/xlink" viewBox="0 0 720 360" height="480" width="960"><defs><symbol id="a" overflow="visible"><path d="M-8.61-1.03V-7h1.063v4.813h2.61v-4.235h1.015v4.234H0v1.157z"/></symbol><symbol id="b" overflow="visible"><path d="M-6.28-.797v-1.015h1.093c-.22-.07-.477-.27-.782-.594-.3-.32-.452-.692-.452-1.11 0-.02.008-.05.016-.093 0-.05.008-.132.015-.25h1.11c-.01.063-.017.122-.017.172v.172c0 .532.172.946.516 1.235.335.28.725.42 1.17.42H0v1.063z"/></symbol><symbol id="c" overflow="visible"><path d="M-6.422-3.39c0-.446.106-.88.313-1.297.212-.415.48-.735.813-.954.324-.208.695-.348 1.11-.423.292-.062.757-.093 1.39-.093v4.61c.637-.02 1.15-.173 1.53-.454.388-.28.58-.72.58-1.313 0-.55-.18-.988-.547-1.312-.207-.188-.454-.32-.735-.406v-1.032c.232.023.486.11.767.265.28.156.516.328.703.516.313.323.52.725.625 1.202.063.25.094.54.094.86 0 .78-.282 1.445-.845 1.984-.57.543-1.367.812-2.39.812-1.008 0-1.83-.27-2.454-.812-.632-.55-.952-1.27-.952-2.157zm2.78-1.672c-.456.042-.82.14-1.092.296-.508.282-.766.762-.766 1.438 0 .492.18.902.53 1.234.345.324.79.496 1.33.516zm-2.78 1.78z"/></symbol><symbol id="d" overflow="visible"><path d="M-3.047-1.453c.543 0 .996-.078 1.36-.234.656-.27.984-.75.984-1.438 0-.738-.344-1.242-1.03-1.516-.384-.157-.87-.235-1.454-.235-.55 0-1.004.086-1.36.25-.625.28-.937.78-.937 1.5 0 .46.2.855.593 1.188.398.324 1.01.484 1.843.484zm-3.375-1.563c0-.52.133-.957.39-1.312.15-.195.356-.383.626-.563h-.875v-1H2.5v1.062H-.72c.282.18.51.422.673.734.164.305.25.688.25 1.157 0 .667-.258 1.265-.78 1.796-.532.523-1.333.78-2.407.78-1 0-1.82-.242-2.47-.734-.644-.488-.968-1.13-.968-1.922z"/></symbol><symbol id="e" overflow="visible"><path d="M-6.28-1.828h4.17c.325 0 .587-.05.782-.156.375-.188.562-.536.562-1.047 0-.728-.328-1.228-.984-1.5-.352-.146-.832-.22-1.438-.22H-6.28v-1.047H0v.984h-.922c.242.137.438.305.594.5.332.407.5.9.5 1.47 0 .898-.3 1.507-.906 1.827-.313.18-.74.266-1.282.266H-6.28zm-.142-1.453z"/></symbol><symbol id="f" overflow="visible"><path d="M-6.28-.78v-1h.89c-.364-.29-.626-.603-.782-.94-.164-.33-.25-.702-.25-1.108 0-.883.313-1.485.938-1.797.343-.176.828-.266 1.453-.266H0v1.077h-3.953c-.383 0-.692.06-.922.172-.395.187-.594.527-.594 1.015 0 .25.03.453.08.61.085.292.257.546.515.765.21.18.422.293.64.344.22.054.54.078.954.078H0V-.78zm-.142-2.47z"/></symbol><symbol id="g" overflow="visible"><path d="M-6.453-3.188c0-.707.172-1.28.516-1.718.343-.446.933-.72 1.765-.813v1.032c-.383.063-.703.204-.953.422-.258.22-.39.58-.39 1.079 0 .667.327 1.148.984 1.437.428.188.952.28 1.577.28s1.156-.128 1.594-.39c.43-.27.64-.69.64-1.265 0-.438-.132-.78-.405-1.03-.27-.26-.633-.44-1.094-.532V-5.72c.837.118 1.447.407 1.83.876.386.47.578 1.07.578 1.797 0 .824-.3 1.48-.907 1.97-.6.49-1.35.733-2.25.733-1.1 0-1.956-.265-2.56-.797-.615-.54-.923-1.223-.923-2.048zm.03.157z"/></symbol><symbol id="h" overflow="visible"><path d="M-6.28-4.688v-1.17c.405.147 1.327.475 2.764.983 1.075.387 1.95.71 2.625.97 1.6.604 2.58 1.03 2.937 1.28.35.25.53.684.53 1.297 0 .148-.01.262-.03.344-.012.074-.03.17-.063.296H1.53c.052-.187.083-.32.095-.406.008-.082.016-.156.016-.218 0-.188-.03-.33-.093-.422-.063-.094-.14-.172-.234-.235-.032-.018-.196-.085-.485-.202-.293-.125-.508-.21-.64-.265l-6.47 2.312v-1.188L-1.17-3zM-6.423-3z"/></symbol><symbol id="i" overflow="visible"><path d="M-8.39-3.25c0-1.082.45-1.867 1.343-2.36.688-.374 1.637-.562 2.844-.562 1.137 0 2.078.172 2.828.516C-.3-5.164.235-4.36.235-3.234c0 1-.438 1.75-1.313 2.25-.738.406-1.723.61-2.953.61-.947 0-1.767-.126-2.454-.376-1.27-.457-1.907-1.29-1.907-2.5zm7.656.016c0-.55-.24-.99-.72-1.313-.487-.32-1.394-.484-2.718-.484-.945 0-1.726.12-2.344.358-.613.23-.92.684-.92 1.36-.002.624.29 1.085.873 1.374.586.282 1.446.422 2.58.422.854 0 1.542-.093 2.06-.28.794-.282 1.19-.76 1.19-1.438z"/></symbol><symbol id="j" overflow="visible"><path d="M-5.938-1.156h-.812c-.07-.758-.195-1.285-.375-1.578-.176-.3-.586-.532-1.234-.688v-.828H0v1.125h-5.938z"/></symbol><symbol id="k" overflow="visible"><path d="M0-.375c-.72-.04-1.344-.19-1.875-.453-.54-.258-1.03-.766-1.47-1.516L-4-3.47c-.29-.5-.54-.85-.75-1.06-.32-.322-.69-.486-1.11-.486-.488 0-.874.153-1.156.454-.29.292-.437.68-.437 1.156 0 .73.273 1.23.812 1.5.304.156.71.242 1.218.25v1.078c-.726-.008-1.32-.145-1.78-.406-.814-.457-1.22-1.266-1.22-2.422 0-.957.262-1.656.78-2.094.525-.445 1.103-.672 1.736-.672.668 0 1.242.234 1.718.703.282.275.622.763 1.016 1.47l.438.813c.21.374.414.67.61.89.335.4.71.65 1.124.75V-6.14h1z"/></symbol><symbol id="l" overflow="visible"><path d="M.234-3.125c0 1-.27 1.727-.812 2.172-.55.45-1.22.672-2 .672v-1.11c.543-.04.937-.14 1.187-.298.437-.28.656-.773.656-1.484 0-.562-.145-1.008-.438-1.344-.3-.332-.687-.5-1.156-.5-.57 0-.973.18-1.203.532-.24.355-.36.843-.36 1.468 0 .075.007.15.015.22v.218h-.938c.024-.113.032-.207.032-.28v-.236c0-.394-.064-.72-.19-.97-.218-.444-.608-.67-1.17-.67-.415 0-.735.152-.954.453-.226.292-.343.635-.343 1.03 0 .7.234 1.184.703 1.453.25.15.617.23 1.093.25V-.5c-.626 0-1.157-.125-1.594-.375-.782-.426-1.172-1.18-1.172-2.266 0-.852.195-1.516.578-1.985.375-.47.93-.703 1.656-.703.512 0 .93.137 1.25.406.2.18.356.402.47.672.124-.438.358-.78.702-1.03s.766-.376 1.266-.376c.804 0 1.46.265 1.968.797.5.524.75 1.266.75 2.235z"/></symbol></defs><use xlink:href="#a" x="12.961" y="201.148" width="100%" height="100%"/><use xlink:href="#b" x="12.961" y="193.818" width="100%" height="100%"/><use xlink:href="#c" x="12.961" y="189.822" width="100%" height="100%"/><use xlink:href="#d" x="12.961" y="183.148" width="100%" height="100%"/><use xlink:href="#e" x="12.961" y="176.475" width="100%" height="100%"/><use xlink:href="#c" x="12.961" y="169.801" width="100%" height="100%"/><use xlink:href="#f" x="12.961" y="163.127" width="100%" height="100%"/><use xlink:href="#g" x="12.961" y="156.453" width="100%" height="100%"/><use xlink:href="#h" x="12.961" y="150.453" width="100%" height="100%"/><path d="M82.398 278.133h4.786v-.004h-4.786zM87.188 278.133h4.785zM91.973 278.133h4.785zM96.762 278.133h4.785zM101.547 278.133h4.785zM106.336 278.133h4.785v-.004h-4.784zM111.12 278.133h4.786zM115.906 278.133h4.785zM120.695 278.133h4.785zM125.48 278.133h4.786zM130.27 278.133h4.785zM135.055 278.133h4.785v-.004h-4.785zM139.844 278.133h4.785zM144.63 278.133h4.784v-.293h-4.785zM149.418 278.133h4.785v-.324h-4.785zM154.203 278.133h4.785v-.5h-4.785zM158.988 278.133h4.785v-.473h-4.785zM163.777 278.133h4.786v-.45h-4.786z" fill="none" stroke="#000" stroke-width=".75" stroke-linecap="round" stroke-linejoin="round" stroke-miterlimit="10"/><path d="M168.563 278.133h4.785v-.38h-4.786zM173.352 278.133h4.785v-2.625h-4.785zM178.137 278.133h4.785v-1.695h-4.785zM182.926 278.133h4.785v-1.512h-4.784z" fill="none" stroke="#000" stroke-width=".75" stroke-linecap="round" stroke-linejoin="round" stroke-miterlimit="10"/><path d="M187.71 278.133h4.786v-1.547h-4.785zM192.5 278.133h4.785v-1.367H192.5zM197.285 278.133h4.785v-1.125h-4.785zM202.07 278.133h4.785v-1.207h-4.785zM206.86 278.133h4.785v-.98h-4.786zM211.645 278.133h4.785v-1.938h-4.785zM216.434 278.133h4.785v-1.957h-4.786zM221.22 278.133h4.784v-1.56h-4.785zM226.008 278.133h4.785v-1.043h-4.785zM230.793 278.133h4.785v-.93h-4.785zM235.582 278.133h4.785v-1.38h-4.785zM240.367 278.133h4.785v-1.235h-4.785zM245.152 278.133h4.786v-1.707h-4.786zM249.94 278.133h4.787v-.887h-4.786zM254.727 278.133h4.785v-1.45h-4.785zM259.516 278.133h4.785v-.992h-4.784z" fill="none" stroke="#000" stroke-width=".75" stroke-linecap="round" stroke-linejoin="round" stroke-miterlimit="10"/><path d="M264.3 278.133h4.786v-1.442H264.3zM269.09 278.133h4.785v-1.383h-4.785zM273.875 278.133h4.785v-1.04h-4.785zM278.664 278.133h4.785v-.75h-4.786zM283.45 278.133h4.784v-.918h-4.785zM288.234 278.133h4.786v-1.28h-4.786zM293.023 278.133h4.786v-1.074h-4.787zM297.81 278.133h4.784v-1.72h-4.785zM302.598 278.133h4.785v-1.73h-4.785z" fill="none" stroke="#000" stroke-width=".75" stroke-linecap="round" stroke-linejoin="round" stroke-miterlimit="10"/><path d="M307.383 278.133h4.785v-2.164h-4.785zM312.172 278.133h4.785v-1.46h-4.785z" fill="none" stroke="#000" stroke-width=".75" stroke-linecap="round" stroke-linejoin="round" stroke-miterlimit="10"/><path d="M316.957 278.133h4.785v-1.695h-4.785zM321.746 278.133h4.785v-3.04h-4.784z" fill="none" stroke="#000" stroke-width=".75" stroke-linecap="round" stroke-linejoin="round" stroke-miterlimit="10"/><path d="M326.53 278.133h4.786v-2.856h-4.785zM331.316 278.133h4.786V276.2h-4.786zM336.105 278.133h4.786v-1.828h-4.785z" fill="none" stroke="#000" stroke-width=".75" stroke-linecap="round" stroke-linejoin="round" stroke-miterlimit="10"/><path d="M340.89 278.133h4.786v-1.684h-4.785zM345.68 278.133h4.785v-1.668h-4.785z" fill="none" stroke="#000" stroke-width=".75" stroke-linecap="round" stroke-linejoin="round" stroke-miterlimit="10"/><path d="M350.465 278.133h4.785v-2.02h-4.785zM355.254 278.133h4.785v-1.39h-4.786zM360.04 278.133h4.784v-4.067h-4.785zM364.828 278.133h4.785v-3.18h-4.785zM369.613 278.133h4.785v-2.25h-4.785zM374.398 278.133h4.786v-3.43h-4.786zM379.188 278.133h4.785v-1.922h-4.785zM383.973 278.133h4.785v-2.153h-4.785zM388.762 278.133h4.785V276h-4.785zM393.547 278.133h4.785v-2.422h-4.785zM398.336 278.133h4.785v-2.352h-4.784z" fill="none" stroke="#000" stroke-width=".75" stroke-linecap="round" stroke-linejoin="round" stroke-miterlimit="10"/><path d="M403.12 278.133h4.786v-3.46h-4.785zM407.906 278.133h4.785v-3.172h-4.784zM412.695 278.133h4.785v-3.278h-4.785zM417.48 278.133h4.786v-2.43h-4.786zM422.27 278.133h4.785v-2.738h-4.785zM427.055 278.133h4.785v-1.922h-4.785zM431.844 278.133h4.785v-2.31h-4.786zM436.63 278.133h4.784v-3.3h-4.785zM441.418 278.133h4.785v-3h-4.785z" fill="none" stroke="#000" stroke-width=".75" stroke-linecap="round" stroke-linejoin="round" stroke-miterlimit="10"/><path d="M446.203 278.133h4.785v-3.668h-4.785zM450.988 278.133h4.785v-2.793h-4.785zM455.777 278.133h4.785v-4.71h-4.785zM460.563 278.133h4.785v-4.906h-4.785zM465.352 278.133h4.785v-5.582h-4.785zM470.137 278.133h4.785v-6.317h-4.785zM474.926 278.133h4.785v-6.79h-4.784z" fill="none" stroke="#000" stroke-width=".75" stroke-linecap="round" stroke-linejoin="round" stroke-miterlimit="10"/><path d="M479.71 278.133h4.786v-9.004h-4.785zM484.5 278.133h4.785v-11.875H484.5zM489.285 278.133h4.785v-8.64h-4.785z" fill="none" stroke="#000" stroke-width=".75" stroke-linecap="round" stroke-linejoin="round" stroke-miterlimit="10"/><path d="M494.07 278.133h4.785V267.98h-4.785zM498.86 278.133h4.785v-9.742h-4.786z" fill="none" stroke="#000" stroke-width=".75" stroke-linecap="round" stroke-linejoin="round" stroke-miterlimit="10"/><path d="M503.645 278.133h4.785V265.64h-4.785zM508.434 278.133h4.785V266.44h-4.786zM513.22 278.133h4.784v-11.996h-4.785zM518.008 278.133h4.785v-12.625h-4.785zM522.793 278.133h4.785v-12.36h-4.785zM527.582 278.133h4.785v-12.047h-4.785zM532.367 278.133h4.785V260.52h-4.785zM537.152 278.133h4.785V263.41h-4.785zM541.94 278.133h4.787V263.38h-4.786z" fill="none" stroke="#000" stroke-width=".75" stroke-linecap="round" stroke-linejoin="round" stroke-miterlimit="10"/><path d="M546.727 278.133h4.785v-14.758h-4.785zM551.516 278.133h4.785v-28.945h-4.784z" fill="none" stroke="#000" stroke-width=".75" stroke-linecap="round" stroke-linejoin="round" stroke-miterlimit="10"/><path d="M556.3 278.133h4.786v-14.5H556.3zM561.09 278.133h4.785V268.04h-4.785zM565.875 278.133h4.785v-13.688h-4.785zM570.664 278.133h4.785V251.43h-4.786zM575.45 278.133h4.784v-17.93h-4.785zM580.234 278.133h4.786v-15.64h-4.786zM585.023 278.133h4.786v-11.78h-4.787zM589.81 278.133h4.784v-14.695h-4.785zM594.598 278.133h4.785V261.43h-4.785zM599.383 278.133h4.785v-33.32h-4.785zM604.172 278.133h4.785v-20.98h-4.785zM608.957 278.133h4.785V259.47h-4.785zM613.746 278.133h4.785v-23.317h-4.784z" fill="none" stroke="#000" stroke-width=".75" stroke-linecap="round" stroke-linejoin="round" stroke-miterlimit="10"/><path d="M618.53 278.133h4.786v-32.875h-4.785zM623.316 278.133h4.786v-27.176h-4.786zM628.105 278.133h4.786v-30.418h-4.785z" fill="none" stroke="#000" stroke-width=".75" stroke-linecap="round" stroke-linejoin="round" stroke-miterlimit="10"/><path d="M632.89 278.133h4.786v-37.637h-4.785zM637.68 278.133h4.785V223.87h-4.785zM642.465 278.133h4.785v-45.356h-4.785zM647.254 278.133h4.785v-68.38h-4.786zM652.04 278.133h4.784v-113.34h-4.785zM656.828 278.133h4.785V67.465h-4.785zM661.613 278.133h4.785v-26.22h-4.785zM59.04 278.133V105.11M59.04 278.133h-7.2M59.04 220.46h-7.2M59.04 162.785h-7.2M59.04 105.11h-7.2" fill="none" stroke="#000" stroke-width=".75" stroke-linecap="round" stroke-linejoin="round" stroke-miterlimit="10"/><use xlink:href="#i" x="41.762" y="281.469" width="100%" height="100%"/><use xlink:href="#j" x="41.762" y="237.145" width="100%" height="100%"/><use xlink:href="#i" x="41.762" y="230.471" width="100%" height="100%"/><use xlink:href="#i" x="41.762" y="223.797" width="100%" height="100%"/><use xlink:href="#i" x="41.762" y="217.123" width="100%" height="100%"/><use xlink:href="#i" x="41.762" y="210.449" width="100%" height="100%"/><use xlink:href="#k" x="41.762" y="179.469" width="100%" height="100%"/><use xlink:href="#i" x="41.762" y="172.795" width="100%" height="100%"/><use xlink:href="#i" x="41.762" y="166.121" width="100%" height="100%"/><use xlink:href="#i" x="41.762" y="159.447" width="100%" height="100%"/><use xlink:href="#i" x="41.762" y="152.773" width="100%" height="100%"/><use xlink:href="#l" x="41.762" y="121.793" width="100%" height="100%"/><use xlink:href="#i" x="41.762" y="115.119" width="100%" height="100%"/><use xlink:href="#i" x="41.762" y="108.445" width="100%" height="100%"/><use xlink:href="#i" x="41.762" y="101.771" width="100%" height="100%"/><use xlink:href="#i" x="41.762" y="95.098" width="100%" height="100%"/><path d="M82.398 286.56h584M82.398 286.56v7.202M87.188 286.56v7.202M91.973 286.56v7.202M96.762 286.56v7.202M101.547 286.56v7.202M106.336 286.56v7.202M111.12 286.56v7.202M115.906 286.56v7.202M120.695 286.56v7.202M125.48 286.56v7.202M130.27 286.56v7.202M135.055 286.56v7.202M139.844 286.56v7.202M144.63 286.56v7.202M149.418 286.56v7.202M154.203 286.56v7.202M158.988 286.56v7.202M163.777 286.56v7.202M168.563 286.56v7.202M173.352 286.56v7.202M178.137 286.56v7.202M182.926 286.56v7.202M187.71 286.56v7.202M192.5 286.56v7.202M197.285 286.56v7.202M202.07 286.56v7.202M206.86 286.56v7.202M211.645 286.56v7.202M216.434 286.56v7.202M221.22 286.56v7.202M226.008 286.56v7.202M230.793 286.56v7.202M235.582 286.56v7.202M240.367 286.56v7.202M245.152 286.56v7.202M249.94 286.56v7.202M254.727 286.56v7.202M259.516 286.56v7.202M264.3 286.56v7.202M269.09 286.56v7.202M273.875 286.56v7.202M278.664 286.56v7.202M283.45 286.56v7.202M288.234 286.56v7.202M293.023 286.56v7.202M297.81 286.56v7.202M302.598 286.56v7.202M307.383 286.56v7.202M312.172 286.56v7.202M316.957 286.56v7.202M321.746 286.56v7.202M326.53 286.56v7.202M331.316 286.56v7.202M336.105 286.56v7.202M340.89 286.56v7.202M345.68 286.56v7.202M350.465 286.56v7.202M355.254 286.56v7.202M360.04 286.56v7.202M364.828 286.56v7.202M369.613 286.56v7.202M374.398 286.56v7.202M379.188 286.56v7.202M383.973 286.56v7.202M388.762 286.56v7.202M393.547 286.56v7.202M398.336 286.56v7.202M403.12 286.56v7.202M407.906 286.56v7.202M412.695 286.56v7.202M417.48 286.56v7.202M422.27 286.56v7.202M427.055 286.56v7.202M431.844 286.56v7.202" fill="none" stroke="#000" stroke-width=".75" stroke-linecap="round" stroke-linejoin="round" stroke-miterlimit="10"/><path d="M436.63 286.56v7.202" stroke="#000" stroke-width=".75" stroke-linecap="round" stroke-linejoin="round" stroke-miterlimit="10"/><path d="M441.418 286.56v7.202M446.203 286.56v7.202M450.988 286.56v7.202M455.777 286.56v7.202M460.563 286.56v7.202M465.352 286.56v7.202M470.137 286.56v7.202M474.926 286.56v7.202M479.71 286.56v7.202M484.5 286.56v7.202M489.285 286.56v7.202M494.07 286.56v7.202M498.86 286.56v7.202M503.645 286.56v7.202M508.434 286.56v7.202M513.22 286.56v7.202M518.008 286.56v7.202M522.793 286.56v7.202M527.582 286.56v7.202M532.367 286.56v7.202M537.152 286.56v7.202M541.94 286.56v7.202M546.727 286.56v7.202M551.516 286.56v7.202M556.3 286.56v7.202M561.09 286.56v7.202M565.875 286.56v7.202M570.664 286.56v7.202M575.45 286.56v7.202M580.234 286.56v7.202M585.023 286.56v7.202M589.81 286.56v7.202M594.598 286.56v7.202M599.383 286.56v7.202M604.172 286.56v7.202M608.957 286.56v7.202M613.746 286.56v7.202M618.53 286.56v7.202M623.316 286.56v7.202M628.105 286.56v7.202M632.89 286.56v7.202M637.68 286.56v7.202M642.465 286.56v7.202M647.254 286.56v7.202M652.04 286.56v7.202M656.828 286.56v7.202M661.613 286.56v7.202M666.398 286.56v7.202" fill="none" stroke="#000" stroke-width=".75" stroke-linecap="round" stroke-linejoin="round" stroke-miterlimit="10"/><text y="43.373" x="249.492" style="line-height:125%" font-size="32" font-family="sans-serif" letter-spacing="-.64" word-spacing="0"><tspan y="43.373" x="249.492" font-size="16">Histogram of #MarRef tweets</tspan></text><text y="312.5" x="666.468" style="line-height:100%;text-align:center" font-size="11" font-family="sans-serif" letter-spacing="-.64" word-spacing="0" text-anchor="middle"><tspan y="312.5" x="666.148">May</tspan><tspan y="323.5" x="666.148">24th</tspan></text><text style="line-height:100%;text-align:center" x="608.825" y="312.5" font-size="11" font-family="sans-serif" letter-spacing="-.64" word-spacing="0" text-anchor="middle"><tspan x="608.505" y="312.5">May</tspan><tspan x="608.505" y="323.5">12th</tspan></text><text y="312.5" x="551.742" style="line-height:100%;text-align:center" font-size="11" font-family="sans-serif" letter-spacing="-.64" word-spacing="0" text-anchor="middle"><tspan y="312.5" x="551.422">April</tspan><tspan y="323.5" x="551.422">30th</tspan></text><text style="line-height:100%;text-align:center" x="494.297" y="312.5" font-size="11" font-family="sans-serif" letter-spacing="-.64" word-spacing="0" text-anchor="middle"><tspan x="493.977" y="312.5">April</tspan><tspan x="493.977" y="323.5">18th</tspan></text><text y="312.5" x="437.099" style="line-height:100%;text-align:center" font-size="11" font-family="sans-serif" letter-spacing="-.64" word-spacing="0" text-anchor="middle"><tspan y="312.5" x="436.779">April</tspan><tspan y="323.5" x="436.779">6th</tspan></text><text style="line-height:100%;text-align:center" x="379.12" y="312.5" font-size="11" font-family="sans-serif" letter-spacing="-.64" word-spacing="0" text-anchor="middle"><tspan x="378.8" y="312.5">March</tspan><tspan x="378.8" y="323.5">25th</tspan></text><text y="312.5" x="321.679" style="line-height:100%;text-align:center" font-size="11" font-family="sans-serif" letter-spacing="-.64" word-spacing="0" text-anchor="middle"><tspan y="312.5" x="321.359">March</tspan><tspan y="323.5" x="321.359">13th</tspan></text><text style="line-height:100%;text-align:center" x="264.234" y="312.5" font-size="11" font-family="sans-serif" letter-spacing="-.64" word-spacing="0" text-anchor="middle"><tspan x="263.914" y="312.5">March</tspan><tspan x="263.914" y="323.5">1st</tspan></text><text y="312.5" x="206.483" style="line-height:100%;text-align:center" font-size="11" font-family="sans-serif" letter-spacing="-.64" word-spacing="0" text-anchor="middle"><tspan y="312.5" x="206.163">February</tspan><tspan y="323.5" x="206.163">17th</tspan></text><text style="line-height:100%;text-align:center" x="149.042" y="312.5" font-size="11" font-family="sans-serif" letter-spacing="-.64" word-spacing="0" text-anchor="middle"><tspan x="148.722" y="312.5">February</tspan><tspan x="148.722" y="323.5">5th</tspan></text><text y="312.5" x="92.421" style="line-height:100%;text-align:center" font-size="11" font-family="sans-serif" letter-spacing="-.64" word-spacing="0" text-anchor="middle"><tspan y="312.5" x="92.101">January</tspan><tspan y="323.5" x="92.101">24th</tspan></text></svg>